<mxfile host="Electron" agent="Mozilla/5.0 (Windows NT 10.0; Win64; x64) AppleWebKit/537.36 (KHTML, like Gecko) draw.io/24.7.8 Chrome/128.0.6613.36 Electron/32.0.1 Safari/537.36" version="24.7.8">
  <diagram name="Seite-1" id="dbnD2smsbesPfZMOASxz">
    <mxGraphModel dx="712" dy="311" grid="1" gridSize="10" guides="1" tooltips="1" connect="1" arrows="1" fold="1" page="1" pageScale="1" pageWidth="827" pageHeight="1169" math="0" shadow="0">
      <root>
        <mxCell id="0" />
        <mxCell id="1" parent="0" />
        <mxCell id="ULucFYlJJhHYR_68_Qxk-7" style="edgeStyle=orthogonalEdgeStyle;rounded=0;orthogonalLoop=1;jettySize=auto;html=1;entryX=0;entryY=0.5;entryDx=0;entryDy=0;" parent="1" source="ULucFYlJJhHYR_68_Qxk-1" target="ULucFYlJJhHYR_68_Qxk-2" edge="1">
          <mxGeometry relative="1" as="geometry" />
        </mxCell>
        <mxCell id="ULucFYlJJhHYR_68_Qxk-1" value="" style="ellipse;whiteSpace=wrap;html=1;aspect=fixed;fillColor=#000000;" parent="1" vertex="1">
          <mxGeometry x="80" y="40" width="40" height="40" as="geometry" />
        </mxCell>
        <mxCell id="ULucFYlJJhHYR_68_Qxk-8" style="edgeStyle=orthogonalEdgeStyle;rounded=0;orthogonalLoop=1;jettySize=auto;html=1;entryX=0;entryY=0.5;entryDx=0;entryDy=0;" parent="1" source="ULucFYlJJhHYR_68_Qxk-2" target="ULucFYlJJhHYR_68_Qxk-3" edge="1">
          <mxGeometry relative="1" as="geometry" />
        </mxCell>
        <mxCell id="ULucFYlJJhHYR_68_Qxk-2" value="ChoosePowerCard" style="rounded=1;whiteSpace=wrap;html=1;" parent="1" vertex="1">
          <mxGeometry x="200" y="30" width="120" height="60" as="geometry" />
        </mxCell>
        <mxCell id="ULucFYlJJhHYR_68_Qxk-9" style="edgeStyle=orthogonalEdgeStyle;rounded=0;orthogonalLoop=1;jettySize=auto;html=1;entryX=0;entryY=0.5;entryDx=0;entryDy=0;" parent="1" source="ULucFYlJJhHYR_68_Qxk-3" target="ULucFYlJJhHYR_68_Qxk-4" edge="1">
          <mxGeometry relative="1" as="geometry" />
        </mxCell>
        <mxCell id="ULucFYlJJhHYR_68_Qxk-3" value="PlayPowerCard" style="rounded=1;whiteSpace=wrap;html=1;" parent="1" vertex="1">
          <mxGeometry x="400" y="30" width="120" height="60" as="geometry" />
        </mxCell>
        <mxCell id="ULucFYlJJhHYR_68_Qxk-4" value="" style="ellipse;whiteSpace=wrap;html=1;aspect=fixed;" parent="1" vertex="1">
          <mxGeometry x="600" y="40" width="40" height="40" as="geometry" />
        </mxCell>
        <mxCell id="ULucFYlJJhHYR_68_Qxk-5" value="" style="ellipse;whiteSpace=wrap;html=1;aspect=fixed;fillColor=#000000;" parent="1" vertex="1">
          <mxGeometry x="606.41" y="46.40999999999997" width="27.18" height="27.18" as="geometry" />
        </mxCell>
        <mxCell id="ULucFYlJJhHYR_68_Qxk-6" style="edgeStyle=orthogonalEdgeStyle;rounded=0;orthogonalLoop=1;jettySize=auto;html=1;exitX=0.5;exitY=1;exitDx=0;exitDy=0;" parent="1" source="ULucFYlJJhHYR_68_Qxk-2" target="ULucFYlJJhHYR_68_Qxk-2" edge="1">
          <mxGeometry relative="1" as="geometry" />
        </mxCell>
        <mxCell id="6tZQexcVvcQYfdS9GfLh-1" value="PowerCard" style="shape=umlFrame;whiteSpace=wrap;html=1;pointerEvents=0;recursiveResize=0;container=1;collapsible=0;width=160;" parent="1" vertex="1">
          <mxGeometry x="40" width="640" height="120" as="geometry" />
        </mxCell>
        <mxCell id="pX2b-Sw1lWX_RQ3iN6Xb-1" value="[Bonuskarte&amp;nbsp;&lt;div&gt;gewÃ¤hlt]&lt;/div&gt;" style="text;html=1;align=center;verticalAlign=middle;resizable=0;points=[];autosize=1;strokeColor=none;fillColor=none;" vertex="1" parent="6tZQexcVvcQYfdS9GfLh-1">
          <mxGeometry x="280" y="13" width="90" height="40" as="geometry" />
        </mxCell>
        <mxCell id="pX2b-Sw1lWX_RQ3iN6Xb-2" value="[Bonuskarte&lt;div&gt;ausgespielt]&lt;/div&gt;" style="text;html=1;align=center;verticalAlign=middle;resizable=0;points=[];autosize=1;strokeColor=none;fillColor=none;" vertex="1" parent="6tZQexcVvcQYfdS9GfLh-1">
          <mxGeometry x="480" y="20" width="90" height="40" as="geometry" />
        </mxCell>
      </root>
    </mxGraphModel>
  </diagram>
</mxfile>
